<svg id="Layer_1" data-name="Layer 1" xmlns="http://www.w3.org/2000/svg" viewBox="0 0 361.21 157.47"><defs><style>.cls-1{fill:#d6ad41;}</style></defs><title>gg</title><path class="cls-1" d="M83,191q53,2.42,106,2.32t106-2.75c17.32-.86,34.65-1.89,51.95-3.2,16.19-1.24,32.59-3,48-8.41,24.5-8.6,47.59-28.81,47.84-56.57.12-12.93-4.59-25.75-12.3-36-8.7-11.59-20.78-18.93-34.18-24-15.47-5.89-31.76-10.06-47.88-13.76A503.23,503.23,0,0,0,298.3,39.7,495,495,0,0,0,248,36c-14.62-.33-29.34-.24-43.89,1.42C179.87,40.17,154,47.3,137,66c-17.62,19.48-20.91,48.94-8.64,72.1,12.8,24.16,40,34.58,65.55,38.76,6.37,1,12.79,1.76,19.23,2.29,1.92.15,1.91-2.85,0-3-25.24-2.07-53.22-7.18-71.91-25.76-18.26-18.16-22.57-48-10.34-70.67,11.9-22.07,36.16-32.67,59.69-37.24a216.27,216.27,0,0,1,37.58-3.53A494.87,494.87,0,0,1,374.65,58.45c14.57,4.23,29.94,8.67,42.11,18.11a60.55,60.55,0,0,1,21,31.18,49,49,0,0,1-3.82,36.82c-6.15,11.34-16.3,20.12-27.58,26.14-13.55,7.25-28.93,10.44-44.08,12.21-16.46,1.93-33.09,2.73-49.63,3.69q-51,3-102,3.55-51.4.6-102.81-1.17-12.41-.43-24.8-1c-1.93-.09-1.93,2.91,0,3Z" transform="translate(-81.54 -35.84)"/></svg>